<svg width="1438" height="72" viewBox="0 0 1438 72" fill="none" xmlns="http://www.w3.org/2000/svg">
<circle cx="399" cy="3" r="3" fill="#F3F0EA"/>
<circle cx="509" cy="3" r="3" fill="#F3F0EA"/>
<circle cx="311" cy="3" r="3" fill="#F3F0EA"/>
<circle cx="421" cy="3" r="3" fill="#F3F0EA"/>
<circle cx="531" cy="3" r="3" fill="#F3F0EA"/>
<circle cx="333" cy="3" r="3" fill="#F3F0EA"/>
<circle cx="443" cy="3" r="3" fill="#F3F0EA"/>
<circle cx="553" cy="3" r="3" fill="#F3F0EA"/>
<circle cx="355" cy="3" r="3" fill="#F3F0EA"/>
<circle cx="465" cy="3" r="3" fill="#F3F0EA"/>
<circle cx="575" cy="3" r="3" fill="#F3F0EA"/>
<circle cx="377" cy="3" r="3" fill="#F3F0EA"/>
<circle cx="487" cy="3" r="3" fill="#F3F0EA"/>
<circle cx="597" cy="3" r="3" fill="#F3F0EA"/>
<circle cx="399" cy="47" r="3" fill="#F3F0EA"/>
<circle cx="509" cy="47" r="3" fill="#F3F0EA"/>
<circle cx="311" cy="47" r="3" fill="#F3F0EA"/>
<circle cx="421" cy="47" r="3" fill="#F3F0EA"/>
<circle cx="531" cy="47" r="3" fill="#F3F0EA"/>
<circle cx="333" cy="47" r="3" fill="#F3F0EA"/>
<circle cx="443" cy="47" r="3" fill="#F3F0EA"/>
<circle cx="553" cy="47" r="3" fill="#F3F0EA"/>
<circle cx="355" cy="47" r="3" fill="#F3F0EA"/>
<circle cx="465" cy="47" r="3" fill="#F3F0EA"/>
<circle cx="575" cy="47" r="3" fill="#F3F0EA"/>
<circle cx="377" cy="47" r="3" fill="#F3F0EA"/>
<circle cx="487" cy="47" r="3" fill="#F3F0EA"/>
<circle cx="597" cy="47" r="3" fill="#F3F0EA"/>
<circle cx="399" cy="25" r="3" fill="#F3F0EA"/>
<circle cx="509" cy="25" r="3" fill="#F3F0EA"/>
<circle cx="311" cy="25" r="3" fill="#F3F0EA"/>
<circle cx="421" cy="25" r="3" fill="#F3F0EA"/>
<circle cx="531" cy="25" r="3" fill="#F3F0EA"/>
<circle cx="333" cy="25" r="3" fill="#F3F0EA"/>
<circle cx="443" cy="25" r="3" fill="#F3F0EA"/>
<circle cx="553" cy="25" r="3" fill="#F3F0EA"/>
<circle cx="355" cy="25" r="3" fill="#F3F0EA"/>
<circle cx="465" cy="25" r="3" fill="#F3F0EA"/>
<circle cx="575" cy="25" r="3" fill="#F3F0EA"/>
<circle cx="377" cy="25" r="3" fill="#F3F0EA"/>
<circle cx="487" cy="25" r="3" fill="#F3F0EA"/>
<circle cx="597" cy="25" r="3" fill="#F3F0EA"/>
<circle cx="399" cy="69" r="3" fill="#F3F0EA"/>
<circle cx="509" cy="69" r="3" fill="#F3F0EA"/>
<circle cx="311" cy="69" r="3" fill="#F3F0EA"/>
<circle cx="421" cy="69" r="3" fill="#F3F0EA"/>
<circle cx="531" cy="69" r="3" fill="#F3F0EA"/>
<circle cx="333" cy="69" r="3" fill="#F3F0EA"/>
<circle cx="443" cy="69" r="3" fill="#F3F0EA"/>
<circle cx="553" cy="69" r="3" fill="#F3F0EA"/>
<circle cx="355" cy="69" r="3" fill="#F3F0EA"/>
<circle cx="465" cy="69" r="3" fill="#F3F0EA"/>
<circle cx="575" cy="69" r="3" fill="#F3F0EA"/>
<circle cx="377" cy="69" r="3" fill="#F3F0EA"/>
<circle cx="487" cy="69" r="3" fill="#F3F0EA"/>
<circle cx="597" cy="69" r="3" fill="#F3F0EA"/>
<circle cx="91" cy="3" r="3" fill="#F3F0EA"/>
<circle cx="201" cy="3" r="3" fill="#F3F0EA"/>
<circle cx="3" cy="3" r="3" fill="#F3F0EA"/>
<circle cx="113" cy="3" r="3" fill="#F3F0EA"/>
<circle cx="223" cy="3" r="3" fill="#F3F0EA"/>
<circle cx="25" cy="3" r="3" fill="#F3F0EA"/>
<circle cx="135" cy="3" r="3" fill="#F3F0EA"/>
<circle cx="245" cy="3" r="3" fill="#F3F0EA"/>
<circle cx="47" cy="3" r="3" fill="#F3F0EA"/>
<circle cx="157" cy="3" r="3" fill="#F3F0EA"/>
<circle cx="267" cy="3" r="3" fill="#F3F0EA"/>
<circle cx="69" cy="3" r="3" fill="#F3F0EA"/>
<circle cx="179" cy="3" r="3" fill="#F3F0EA"/>
<circle cx="289" cy="3" r="3" fill="#F3F0EA"/>
<circle cx="91" cy="47" r="3" fill="#F3F0EA"/>
<circle cx="201" cy="47" r="3" fill="#F3F0EA"/>
<circle cx="3" cy="47" r="3" fill="#F3F0EA"/>
<circle cx="113" cy="47" r="3" fill="#F3F0EA"/>
<circle cx="223" cy="47" r="3" fill="#F3F0EA"/>
<circle cx="25" cy="47" r="3" fill="#F3F0EA"/>
<circle cx="135" cy="47" r="3" fill="#F3F0EA"/>
<circle cx="245" cy="47" r="3" fill="#F3F0EA"/>
<circle cx="47" cy="47" r="3" fill="#F3F0EA"/>
<circle cx="157" cy="47" r="3" fill="#F3F0EA"/>
<circle cx="267" cy="47" r="3" fill="#F3F0EA"/>
<circle cx="69" cy="47" r="3" fill="#F3F0EA"/>
<circle cx="179" cy="47" r="3" fill="#F3F0EA"/>
<circle cx="289" cy="47" r="3" fill="#F3F0EA"/>
<circle cx="91" cy="25" r="3" fill="#F3F0EA"/>
<circle cx="201" cy="25" r="3" fill="#F3F0EA"/>
<circle cx="3" cy="25" r="3" fill="#F3F0EA"/>
<circle cx="113" cy="25" r="3" fill="#F3F0EA"/>
<circle cx="223" cy="25" r="3" fill="#F3F0EA"/>
<circle cx="25" cy="25" r="3" fill="#F3F0EA"/>
<circle cx="135" cy="25" r="3" fill="#F3F0EA"/>
<circle cx="245" cy="25" r="3" fill="#F3F0EA"/>
<circle cx="47" cy="25" r="3" fill="#F3F0EA"/>
<circle cx="157" cy="25" r="3" fill="#F3F0EA"/>
<circle cx="267" cy="25" r="3" fill="#F3F0EA"/>
<circle cx="69" cy="25" r="3" fill="#F3F0EA"/>
<circle cx="179" cy="25" r="3" fill="#F3F0EA"/>
<circle cx="289" cy="25" r="3" fill="#F3F0EA"/>
<circle cx="91" cy="69" r="3" fill="#F3F0EA"/>
<circle cx="201" cy="69" r="3" fill="#F3F0EA"/>
<circle cx="3" cy="69" r="3" fill="#F3F0EA"/>
<circle cx="113" cy="69" r="3" fill="#F3F0EA"/>
<circle cx="223" cy="69" r="3" fill="#F3F0EA"/>
<circle cx="25" cy="69" r="3" fill="#F3F0EA"/>
<circle cx="135" cy="69" r="3" fill="#F3F0EA"/>
<circle cx="245" cy="69" r="3" fill="#F3F0EA"/>
<circle cx="47" cy="69" r="3" fill="#F3F0EA"/>
<circle cx="157" cy="69" r="3" fill="#F3F0EA"/>
<circle cx="267" cy="69" r="3" fill="#F3F0EA"/>
<circle cx="69" cy="69" r="3" fill="#F3F0EA"/>
<circle cx="179" cy="69" r="3" fill="#F3F0EA"/>
<circle cx="289" cy="69" r="3" fill="#F3F0EA"/>
<circle cx="1015" cy="3" r="3" fill="#F3F0EA"/>
<circle cx="1125" cy="3" r="3" fill="#F3F0EA"/>
<circle cx="927" cy="3" r="3" fill="#F3F0EA"/>
<circle cx="1037" cy="3" r="3" fill="#F3F0EA"/>
<circle cx="1147" cy="3" r="3" fill="#F3F0EA"/>
<circle cx="949" cy="3" r="3" fill="#F3F0EA"/>
<circle cx="1059" cy="3" r="3" fill="#F3F0EA"/>
<circle cx="1169" cy="3" r="3" fill="#F3F0EA"/>
<circle cx="971" cy="3" r="3" fill="#F3F0EA"/>
<circle cx="1081" cy="3" r="3" fill="#F3F0EA"/>
<circle cx="1191" cy="3" r="3" fill="#F3F0EA"/>
<circle cx="993" cy="3" r="3" fill="#F3F0EA"/>
<circle cx="1103" cy="3" r="3" fill="#F3F0EA"/>
<circle cx="1213" cy="3" r="3" fill="#F3F0EA"/>
<circle cx="1015" cy="47" r="3" fill="#F3F0EA"/>
<circle cx="1125" cy="47" r="3" fill="#F3F0EA"/>
<circle cx="927" cy="47" r="3" fill="#F3F0EA"/>
<circle cx="1037" cy="47" r="3" fill="#F3F0EA"/>
<circle cx="1147" cy="47" r="3" fill="#F3F0EA"/>
<circle cx="949" cy="47" r="3" fill="#F3F0EA"/>
<circle cx="1059" cy="47" r="3" fill="#F3F0EA"/>
<circle cx="1169" cy="47" r="3" fill="#F3F0EA"/>
<circle cx="971" cy="47" r="3" fill="#F3F0EA"/>
<circle cx="1081" cy="47" r="3" fill="#F3F0EA"/>
<circle cx="1191" cy="47" r="3" fill="#F3F0EA"/>
<circle cx="993" cy="47" r="3" fill="#F3F0EA"/>
<circle cx="1103" cy="47" r="3" fill="#F3F0EA"/>
<circle cx="1213" cy="47" r="3" fill="#F3F0EA"/>
<circle cx="1015" cy="25" r="3" fill="#F3F0EA"/>
<circle cx="1125" cy="25" r="3" fill="#F3F0EA"/>
<circle cx="927" cy="25" r="3" fill="#F3F0EA"/>
<circle cx="1037" cy="25" r="3" fill="#F3F0EA"/>
<circle cx="1147" cy="25" r="3" fill="#F3F0EA"/>
<circle cx="949" cy="25" r="3" fill="#F3F0EA"/>
<circle cx="1059" cy="25" r="3" fill="#F3F0EA"/>
<circle cx="1169" cy="25" r="3" fill="#F3F0EA"/>
<circle cx="971" cy="25" r="3" fill="#F3F0EA"/>
<circle cx="1081" cy="25" r="3" fill="#F3F0EA"/>
<circle cx="1191" cy="25" r="3" fill="#F3F0EA"/>
<circle cx="993" cy="25" r="3" fill="#F3F0EA"/>
<circle cx="1103" cy="25" r="3" fill="#F3F0EA"/>
<circle cx="1213" cy="25" r="3" fill="#F3F0EA"/>
<circle cx="1015" cy="69" r="3" fill="#F3F0EA"/>
<circle cx="1125" cy="69" r="3" fill="#F3F0EA"/>
<circle cx="927" cy="69" r="3" fill="#F3F0EA"/>
<circle cx="1037" cy="69" r="3" fill="#F3F0EA"/>
<circle cx="1147" cy="69" r="3" fill="#F3F0EA"/>
<circle cx="949" cy="69" r="3" fill="#F3F0EA"/>
<circle cx="1059" cy="69" r="3" fill="#F3F0EA"/>
<circle cx="1169" cy="69" r="3" fill="#F3F0EA"/>
<circle cx="971" cy="69" r="3" fill="#F3F0EA"/>
<circle cx="1081" cy="69" r="3" fill="#F3F0EA"/>
<circle cx="1191" cy="69" r="3" fill="#F3F0EA"/>
<circle cx="993" cy="69" r="3" fill="#F3F0EA"/>
<circle cx="1103" cy="69" r="3" fill="#F3F0EA"/>
<circle cx="1213" cy="69" r="3" fill="#F3F0EA"/>
<circle cx="707" cy="3" r="3" fill="#F3F0EA"/>
<circle cx="817" cy="3" r="3" fill="#F3F0EA"/>
<circle cx="619" cy="3" r="3" fill="#F3F0EA"/>
<circle cx="729" cy="3" r="3" fill="#F3F0EA"/>
<circle cx="839" cy="3" r="3" fill="#F3F0EA"/>
<circle cx="641" cy="3" r="3" fill="#F3F0EA"/>
<circle cx="751" cy="3" r="3" fill="#F3F0EA"/>
<circle cx="861" cy="3" r="3" fill="#F3F0EA"/>
<circle cx="663" cy="3" r="3" fill="#F3F0EA"/>
<circle cx="773" cy="3" r="3" fill="#F3F0EA"/>
<circle cx="883" cy="3" r="3" fill="#F3F0EA"/>
<circle cx="685" cy="3" r="3" fill="#F3F0EA"/>
<circle cx="795" cy="3" r="3" fill="#F3F0EA"/>
<circle cx="905" cy="3" r="3" fill="#F3F0EA"/>
<circle cx="707" cy="47" r="3" fill="#F3F0EA"/>
<circle cx="817" cy="47" r="3" fill="#F3F0EA"/>
<circle cx="619" cy="47" r="3" fill="#F3F0EA"/>
<circle cx="729" cy="47" r="3" fill="#F3F0EA"/>
<circle cx="839" cy="47" r="3" fill="#F3F0EA"/>
<circle cx="641" cy="47" r="3" fill="#F3F0EA"/>
<circle cx="751" cy="47" r="3" fill="#F3F0EA"/>
<circle cx="861" cy="47" r="3" fill="#F3F0EA"/>
<circle cx="663" cy="47" r="3" fill="#F3F0EA"/>
<circle cx="773" cy="47" r="3" fill="#F3F0EA"/>
<circle cx="883" cy="47" r="3" fill="#F3F0EA"/>
<circle cx="685" cy="47" r="3" fill="#F3F0EA"/>
<circle cx="795" cy="47" r="3" fill="#F3F0EA"/>
<circle cx="905" cy="47" r="3" fill="#F3F0EA"/>
<circle cx="707" cy="25" r="3" fill="#F3F0EA"/>
<circle cx="817" cy="25" r="3" fill="#F3F0EA"/>
<circle cx="619" cy="25" r="3" fill="#F3F0EA"/>
<circle cx="729" cy="25" r="3" fill="#F3F0EA"/>
<circle cx="839" cy="25" r="3" fill="#F3F0EA"/>
<circle cx="641" cy="25" r="3" fill="#F3F0EA"/>
<circle cx="751" cy="25" r="3" fill="#F3F0EA"/>
<circle cx="861" cy="25" r="3" fill="#F3F0EA"/>
<circle cx="663" cy="25" r="3" fill="#F3F0EA"/>
<circle cx="773" cy="25" r="3" fill="#F3F0EA"/>
<circle cx="883" cy="25" r="3" fill="#F3F0EA"/>
<circle cx="685" cy="25" r="3" fill="#F3F0EA"/>
<circle cx="795" cy="25" r="3" fill="#F3F0EA"/>
<circle cx="905" cy="25" r="3" fill="#F3F0EA"/>
<circle cx="707" cy="69" r="3" fill="#F3F0EA"/>
<circle cx="817" cy="69" r="3" fill="#F3F0EA"/>
<circle cx="619" cy="69" r="3" fill="#F3F0EA"/>
<circle cx="729" cy="69" r="3" fill="#F3F0EA"/>
<circle cx="839" cy="69" r="3" fill="#F3F0EA"/>
<circle cx="641" cy="69" r="3" fill="#F3F0EA"/>
<circle cx="751" cy="69" r="3" fill="#F3F0EA"/>
<circle cx="861" cy="69" r="3" fill="#F3F0EA"/>
<circle cx="663" cy="69" r="3" fill="#F3F0EA"/>
<circle cx="773" cy="69" r="3" fill="#F3F0EA"/>
<circle cx="883" cy="69" r="3" fill="#F3F0EA"/>
<circle cx="685" cy="69" r="3" fill="#F3F0EA"/>
<circle cx="795" cy="69" r="3" fill="#F3F0EA"/>
<circle cx="905" cy="69" r="3" fill="#F3F0EA"/>
<circle cx="1323" cy="3" r="3" fill="#F3F0EA"/>
<circle cx="1433" cy="3" r="3" fill="#F3F0EA"/>
<circle cx="1235" cy="3" r="3" fill="#F3F0EA"/>
<circle cx="1345" cy="3" r="3" fill="#F3F0EA"/>
<circle cx="1257" cy="3" r="3" fill="#F3F0EA"/>
<circle cx="1367" cy="3" r="3" fill="#F3F0EA"/>
<circle cx="1279" cy="3" r="3" fill="#F3F0EA"/>
<circle cx="1389" cy="3" r="3" fill="#F3F0EA"/>
<circle cx="1301" cy="3" r="3" fill="#F3F0EA"/>
<circle cx="1411" cy="3" r="3" fill="#F3F0EA"/>
<circle cx="1323" cy="47" r="3" fill="#F3F0EA"/>
<circle cx="1433" cy="47" r="3" fill="#F3F0EA"/>
<circle cx="1235" cy="47" r="3" fill="#F3F0EA"/>
<circle cx="1345" cy="47" r="3" fill="#F3F0EA"/>
<circle cx="1257" cy="47" r="3" fill="#F3F0EA"/>
<circle cx="1367" cy="47" r="3" fill="#F3F0EA"/>
<circle cx="1279" cy="47" r="3" fill="#F3F0EA"/>
<circle cx="1389" cy="47" r="3" fill="#F3F0EA"/>
<circle cx="1301" cy="47" r="3" fill="#F3F0EA"/>
<circle cx="1411" cy="47" r="3" fill="#F3F0EA"/>
<circle cx="1323" cy="25" r="3" fill="#F3F0EA"/>
<circle cx="1433" cy="25" r="3" fill="#F3F0EA"/>
<circle cx="1235" cy="25" r="3" fill="#F3F0EA"/>
<circle cx="1345" cy="25" r="3" fill="#F3F0EA"/>
<circle cx="1257" cy="25" r="3" fill="#F3F0EA"/>
<circle cx="1367" cy="25" r="3" fill="#F3F0EA"/>
<circle cx="1279" cy="25" r="3" fill="#F3F0EA"/>
<circle cx="1389" cy="25" r="3" fill="#F3F0EA"/>
<circle cx="1301" cy="25" r="3" fill="#F3F0EA"/>
<circle cx="1411" cy="25" r="3" fill="#F3F0EA"/>
<circle cx="1323" cy="69" r="3" fill="#F3F0EA"/>
<circle cx="1433" cy="69" r="3" fill="#F3F0EA"/>
<circle cx="1235" cy="69" r="3" fill="#F3F0EA"/>
<circle cx="1345" cy="69" r="3" fill="#F3F0EA"/>
<circle cx="1257" cy="69" r="3" fill="#F3F0EA"/>
<circle cx="1367" cy="69" r="3" fill="#F3F0EA"/>
<circle cx="1279" cy="69" r="3" fill="#F3F0EA"/>
<circle cx="1389" cy="69" r="3" fill="#F3F0EA"/>
<circle cx="1301" cy="69" r="3" fill="#F3F0EA"/>
<circle cx="1411" cy="69" r="3" fill="#F3F0EA"/>
</svg>
